<svg xmlns="http://www.w3.org/2000/svg" xmlns:xlink="http://www.w3.org/1999/xlink" width="1920" zoomAndPan="magnify" viewBox="0 0 1440 809.999993" height="1080" preserveAspectRatio="xMidYMid meet" version="1.0"><defs><g/><clipPath id="e34ec3f488"><path d="M 1158.605469 108.609375 L 1440 108.609375 L 1440 390.265625 L 1158.605469 390.265625 Z M 1158.605469 108.609375 " clip-rule="nonzero"/></clipPath></defs><g fill="#348d99" fill-opacity="1"><g transform="translate(0.00000622222, 496.396758)"><g><path d="M 120.914062 -193.464844 C 97.832031 -193.464844 78.410156 -179.90625 68.152344 -157.191406 L 67.785156 -157.191406 L 59.359375 -187.601562 L 14.65625 -187.601562 L 14.65625 0 L 70.71875 0 L 70.71875 -102.230469 C 70.71875 -133.007812 83.542969 -151.328125 104.425781 -151.328125 C 120.550781 -151.328125 131.175781 -138.136719 133.007812 -115.054688 L 180.273438 -127.878906 C 175.878906 -169.648438 153.527344 -193.464844 120.914062 -193.464844 Z M 120.914062 -193.464844 "/></g></g></g><g fill="#348d99" fill-opacity="1"><g transform="translate(185.762435, 496.396758)"><g><path d="M 43.96875 -213.25 C 63.753906 -213.25 77.3125 -226.074219 77.3125 -245.128906 C 77.3125 -264.550781 63.753906 -277.375 43.96875 -277.375 C 24.183594 -277.375 10.992188 -264.550781 10.992188 -245.128906 C 10.992188 -226.074219 24.183594 -213.25 43.96875 -213.25 Z M 16.121094 0 L 71.816406 0 L 71.816406 -187.601562 L 16.121094 -187.601562 Z M 16.121094 0 "/></g></g></g><g fill="#348d99" fill-opacity="1"><g transform="translate(274.063701, 496.396758)"><g><path d="M 109.558594 7.328125 C 163.054688 7.328125 203.359375 -25.648438 208.488281 -74.015625 L 156.457031 -81.34375 C 153.527344 -55.695312 134.839844 -38.105469 111.390625 -38.105469 C 84.273438 -38.105469 64.488281 -60.457031 64.121094 -93.800781 C 64.121094 -127.144531 82.441406 -149.496094 107.726562 -149.496094 C 126.777344 -149.496094 143.265625 -136.304688 147.296875 -111.753906 L 198.230469 -124.945312 C 190.167969 -166.71875 153.527344 -194.929688 106.257812 -194.929688 C 48 -194.929688 8.425781 -153.894531 8.425781 -93.800781 C 8.425781 -33.710938 49.097656 7.328125 109.558594 7.328125 Z M 109.558594 7.328125 "/></g></g></g><g fill="#348d99" fill-opacity="1"><g transform="translate(488.771363, 496.396758)"><g><path d="M 14.65625 0 L 70.71875 0 L 70.71875 -60.089844 L 91.601562 -82.074219 L 140.335938 0 L 202.257812 0 L 128.609375 -115.785156 L 198.960938 -187.601562 L 133.738281 -187.601562 L 71.082031 -120.183594 L 70.71875 -120.183594 L 70.71875 -271.878906 L 14.65625 -271.878906 Z M 14.65625 0 "/></g></g></g><g fill="#348d99" fill-opacity="1"><g transform="translate(691.044402, 496.396758)"><g/></g></g><g fill="#348d99" fill-opacity="1"><g transform="translate(772.017764, 496.396758)"><g/></g></g><g fill="#348d99" fill-opacity="1"><g transform="translate(853.008319, 496.396758)"><g><path d="M 120.914062 -193.464844 C 97.832031 -193.464844 78.410156 -179.90625 68.152344 -157.191406 L 67.785156 -157.191406 L 59.359375 -187.601562 L 14.65625 -187.601562 L 14.65625 0 L 70.71875 0 L 70.71875 -102.230469 C 70.71875 -133.007812 83.542969 -151.328125 104.425781 -151.328125 C 120.550781 -151.328125 131.175781 -138.136719 133.007812 -115.054688 L 180.273438 -127.878906 C 175.878906 -169.648438 153.527344 -193.464844 120.914062 -193.464844 Z M 120.914062 -193.464844 "/></g></g></g><g fill="#348d99" fill-opacity="1"><g transform="translate(1038.770747, 496.396758)"><g><path d="M 120.550781 7.328125 C 160.855469 7.328125 196.03125 -9.894531 211.054688 -34.808594 L 179.175781 -59.359375 C 168.183594 -44.335938 146.199219 -33.710938 122.746094 -33.710938 C 91.96875 -33.710938 69.25 -51.296875 65.953125 -78.410156 L 204.457031 -78.410156 C 205.921875 -84.273438 207.023438 -92.335938 207.023438 -99.664062 C 206.65625 -156.089844 168.183594 -194.929688 109.558594 -194.929688 C 49.464844 -194.929688 8.0625 -154.257812 8.425781 -94.902344 C 8.425781 -34.441406 54.59375 7.328125 120.550781 7.328125 Z M 65.585938 -110.65625 C 68.886719 -137.039062 86.105469 -154.992188 109.558594 -154.992188 C 132.640625 -154.992188 148.398438 -138.503906 150.230469 -110.65625 Z M 65.585938 -110.65625 "/></g></g></g><g fill="#348d99" fill-opacity="1"><g transform="translate(660.873189, 547.121169)"><g><path d="M 176.5 -197.6875 L 139.03125 -197.6875 C 134.09375 -179.28125 129.320312 -161.53125 124.71875 -144.4375 C 120.125 -127.351562 115.609375 -110.265625 111.171875 -93.171875 C 106.734375 -76.085938 102.210938 -58.671875 97.609375 -40.921875 C 93.015625 -23.171875 88.085938 -4.597656 82.828125 14.796875 C 79.535156 26.953125 75.425781 40.015625 70.5 53.984375 C 65.570312 67.953125 58.832031 80.851562 50.28125 92.6875 C 41.738281 104.519531 31.140625 114.296875 18.484375 122.015625 C 5.828125 129.742188 -9.695312 133.609375 -28.09375 133.609375 C -32.039062 133.609375 -36.394531 133.195312 -41.15625 132.375 C -45.925781 131.550781 -50.363281 129.988281 -54.46875 127.6875 C -58.582031 125.382812 -62.035156 122.257812 -64.828125 118.3125 C -67.617188 114.375 -69.015625 109.28125 -69.015625 103.03125 C -69.015625 101.0625 -68.6875 98.84375 -68.03125 96.375 C -67.375 93.914062 -66.304688 91.535156 -64.828125 89.234375 C -63.347656 86.929688 -61.375 84.957031 -58.90625 83.3125 C -56.445312 81.675781 -53.570312 80.859375 -50.28125 80.859375 C -46.007812 80.859375 -42.3125 82.171875 -39.1875 84.796875 C -36.070312 87.421875 -34.515625 91.363281 -34.515625 96.625 C -34.515625 99.914062 -35.171875 102.957031 -36.484375 105.75 C -37.796875 108.539062 -38.453125 110.265625 -38.453125 110.921875 C -38.453125 114.535156 -37.21875 117.082031 -34.75 118.5625 C -32.289062 120.039062 -29.414062 120.78125 -26.125 120.78125 C -18.238281 120.78125 -11.421875 117.65625 -5.671875 111.40625 C 0.078125 105.164062 5.085938 97.523438 9.359375 88.484375 C 13.640625 79.453125 17.335938 69.84375 20.453125 59.65625 C 23.578125 49.46875 26.125 40.265625 28.09375 32.046875 L 88.734375 -197.6875 L 52.75 -197.6875 L 56.203125 -210.515625 L 92.1875 -210.515625 L 92.6875 -211.984375 C 96.625 -226.453125 101.222656 -240.914062 106.484375 -255.375 C 111.742188 -269.832031 118.5625 -282.726562 126.9375 -294.0625 C 135.320312 -305.40625 145.757812 -314.609375 158.25 -321.671875 C 170.738281 -328.742188 186.1875 -332.28125 204.59375 -332.28125 C 215.113281 -332.28125 224.398438 -329.894531 232.453125 -325.125 C 240.503906 -320.363281 244.53125 -312.394531 244.53125 -301.21875 C 244.53125 -296.625 243.296875 -292.023438 240.828125 -287.421875 C 238.367188 -282.816406 234.015625 -280.515625 227.765625 -280.515625 C 223.160156 -280.515625 219.296875 -282.15625 216.171875 -285.4375 C 213.054688 -288.726562 211.5 -292.835938 211.5 -297.765625 C 211.5 -301.378906 212.070312 -304.421875 213.21875 -306.890625 C 214.375 -309.359375 214.953125 -310.921875 214.953125 -311.578125 C 214.953125 -314.535156 213.800781 -316.671875 211.5 -317.984375 C 209.195312 -319.296875 206.566406 -319.953125 203.609375 -319.953125 C 196.703125 -319.953125 190.617188 -317.894531 185.359375 -313.78125 C 180.109375 -309.675781 175.59375 -304.5 171.8125 -298.25 C 168.03125 -292.007812 164.820312 -285.109375 162.1875 -277.546875 C 159.5625 -269.992188 157.265625 -262.765625 155.296875 -255.859375 L 142.484375 -210.515625 L 179.9375 -210.515625 Z M 176.5 -197.6875 "/></g></g></g><g clip-path="url(#e34ec3f488)"><path fill="#348d99" d="M 1233.890625 246.136719 C 1235.855469 245.921875 1237.804688 245.625 1239.742188 245.246094 C 1241.679688 244.867188 1243.597656 244.40625 1245.496094 243.863281 C 1247.394531 243.320312 1249.269531 242.699219 1251.113281 242 C 1252.960938 241.300781 1254.773438 240.523438 1256.554688 239.671875 C 1258.335938 238.816406 1260.074219 237.890625 1261.777344 236.886719 C 1263.480469 235.886719 1265.136719 234.816406 1266.746094 233.675781 C 1268.359375 232.535156 1269.917969 231.328125 1271.429688 230.054688 C 1272.9375 228.78125 1274.390625 227.445312 1275.785156 226.050781 C 1277.183594 224.652344 1278.515625 223.199219 1279.789062 221.691406 C 1281.0625 220.183594 1282.269531 218.621094 1283.410156 217.011719 C 1284.550781 215.398438 1285.625 213.742188 1286.625 212.042969 C 1287.625 210.339844 1288.554688 208.597656 1289.40625 206.820312 C 1290.261719 205.039062 1291.035156 203.226562 1291.738281 201.378906 C 1292.4375 199.53125 1293.058594 197.660156 1293.601562 195.761719 C 1294.140625 193.863281 1294.601562 191.945312 1294.980469 190.007812 C 1295.359375 188.070312 1295.65625 186.117188 1295.871094 184.15625 C 1297.957031 165.132812 1299.304688 140.574219 1299.304688 108.867188 C 1299.304688 140.570312 1300.652344 165.132812 1302.734375 184.15625 C 1302.949219 186.117188 1303.246094 188.070312 1303.625 190.007812 C 1304.003906 191.945312 1304.464844 193.863281 1305.007812 195.761719 C 1305.550781 197.660156 1306.171875 199.53125 1306.871094 201.378906 C 1307.570312 203.226562 1308.347656 205.039062 1309.199219 206.820312 C 1310.054688 208.597656 1310.980469 210.339844 1311.984375 212.042969 C 1312.984375 213.742188 1314.054688 215.402344 1315.195312 217.011719 C 1316.335938 218.621094 1317.542969 220.183594 1318.816406 221.691406 C 1320.089844 223.203125 1321.425781 224.652344 1322.820312 226.050781 C 1324.21875 227.445312 1325.671875 228.78125 1327.179688 230.054688 C 1328.6875 231.328125 1330.25 232.535156 1331.859375 233.675781 C 1333.472656 234.816406 1335.128906 235.886719 1336.828125 236.886719 C 1338.53125 237.890625 1340.273438 238.816406 1342.054688 239.671875 C 1343.832031 240.523438 1345.644531 241.300781 1347.492188 242 C 1349.339844 242.699219 1351.210938 243.320312 1353.109375 243.863281 C 1355.007812 244.40625 1356.925781 244.867188 1358.863281 245.246094 C 1360.800781 245.625 1362.753906 245.921875 1364.714844 246.136719 C 1383.742188 248.21875 1408.296875 249.566406 1440.003906 249.566406 C 1408.300781 249.566406 1383.742188 250.914062 1364.714844 253 C 1362.753906 253.214844 1360.800781 253.511719 1358.863281 253.890625 C 1356.925781 254.269531 1355.007812 254.730469 1353.109375 255.269531 C 1351.210938 255.8125 1349.339844 256.433594 1347.492188 257.132812 C 1345.648438 257.835938 1343.832031 258.609375 1342.054688 259.464844 C 1340.273438 260.320312 1338.53125 261.246094 1336.828125 262.246094 C 1335.128906 263.246094 1333.472656 264.320312 1331.859375 265.460938 C 1330.25 266.601562 1328.6875 267.808594 1327.179688 269.082031 C 1325.671875 270.355469 1324.21875 271.6875 1322.820312 273.085938 C 1321.425781 274.480469 1320.089844 275.933594 1318.816406 277.445312 C 1317.542969 278.953125 1316.335938 280.511719 1315.195312 282.125 C 1314.054688 283.734375 1312.984375 285.390625 1311.984375 287.09375 C 1310.980469 288.796875 1310.054688 290.535156 1309.199219 292.316406 C 1308.347656 294.097656 1307.570312 295.910156 1306.871094 297.757812 C 1306.171875 299.601562 1305.550781 301.476562 1305.007812 303.375 C 1304.464844 305.273438 1304.003906 307.191406 1303.625 309.128906 C 1303.246094 311.066406 1302.949219 313.015625 1302.734375 314.980469 C 1300.652344 334.003906 1299.304688 358.5625 1299.304688 390.265625 C 1299.304688 358.5625 1297.957031 334.003906 1295.871094 314.980469 C 1295.65625 313.015625 1295.359375 311.066406 1294.980469 309.128906 C 1294.601562 307.191406 1294.140625 305.273438 1293.601562 303.375 C 1293.058594 301.476562 1292.4375 299.601562 1291.738281 297.757812 C 1291.035156 295.910156 1290.261719 294.097656 1289.40625 292.316406 C 1288.554688 290.535156 1287.625 288.796875 1286.625 287.09375 C 1285.625 285.390625 1284.550781 283.734375 1283.410156 282.125 C 1282.269531 280.511719 1281.0625 278.953125 1279.789062 277.445312 C 1278.515625 275.933594 1277.183594 274.480469 1275.785156 273.085938 C 1274.390625 271.691406 1272.9375 270.355469 1271.429688 269.082031 C 1269.917969 267.808594 1268.359375 266.601562 1266.746094 265.460938 C 1265.136719 264.320312 1263.480469 263.246094 1261.777344 262.246094 C 1260.074219 261.246094 1258.335938 260.320312 1256.554688 259.464844 C 1254.773438 258.613281 1252.960938 257.835938 1251.113281 257.132812 C 1249.269531 256.433594 1247.394531 255.8125 1245.496094 255.273438 C 1243.597656 254.730469 1241.679688 254.269531 1239.742188 253.890625 C 1237.804688 253.511719 1235.855469 253.214844 1233.890625 253 C 1214.867188 250.914062 1190.308594 249.566406 1158.605469 249.566406 C 1190.308594 249.566406 1214.867188 248.21875 1233.890625 246.136719 Z M 1233.890625 246.136719 " fill-opacity="1" fill-rule="nonzero"/></g></svg>